<svg xmlns="http://www.w3.org/2000/svg" xmlns:xlink="http://www.w3.org/1999/xlink" version="1.1" x="0px" y="0px" viewBox="0 0 100 125" enable-background="new 0 0 100 100" xml:space="preserve"><g><path class="owner_icon" style="fill:white" d="M80.612,8.182H57.369c-3.153-1.971-7.74-3.178-13.772-3.178c-4.99,0-9.644,0.919-13.454,2.431h-11.21   c-3.049,0-5.521,4.09-5.521,9.137v7.282c0,5.049,2.472,9.139,5.521,9.139h11.8c0.104,0,0.205-0.017,0.307-0.025l13.862,16.804   c2.111,2.261,5.565,2.517,7.978,0.687v4.77c-4.821,0.33-8.633,4.34-8.633,9.248c0,3.859,2.361,7.168,5.716,8.563v-0.256   c0-1.959,1.596-3.557,3.557-3.557c1.962,0,3.557,1.598,3.557,3.557v0.256c3.356-1.395,5.715-4.703,5.715-8.563   c0-4.908-3.809-8.918-8.632-9.248V50.33c0.886,0.832,2.006,1.338,3.235,1.338c2.846,0,5.157-2.676,5.157-5.976V26.887l7.518,5.794   c2.673,1.936,6.277,1.522,8.05-0.927c1.774-2.446,1.047-6.001-1.626-7.938l-7.282-5.609h11.402c3.3,0,5.977-2.245,5.977-5.013   C86.589,10.425,83.912,8.182,80.612,8.182z M52.235,39.914l-9.163-11.109c-0.031-0.299-0.059-0.666-0.116-1.142   c-0.284-2.431,1.992-4.438,4.438-4.438c2.449,0,4.84,2.343,4.84,4.791V39.914z M55.721,61.229c0,1.213-0.987,2.201-2.202,2.201   s-2.202-0.988-2.202-2.201c0-0.992,0.662-1.82,1.563-2.098v0.895c0,0.354,0.286,0.639,0.64,0.639c0.353,0,0.64-0.285,0.64-0.639   v-0.895C55.059,59.408,55.721,60.236,55.721,61.229z"/><path class="owner_icon" style="fill:white" d="M53.519,70.078c-1.491,0-2.704,1.211-2.704,2.703v19.506c0,1.494,1.213,2.709,2.704,2.709s2.705-1.215,2.705-2.709V72.781   C56.224,71.289,55.01,70.078,53.519,70.078z"/></g></svg>


